<?xml version="1.0" standalone="no"?>
<!DOCTYPE svg PUBLIC "-//W3C//DTD SVG 20010904//EN"
 "http://www.w3.org/TR/2001/REC-SVG-20010904/DTD/svg10.dtd">
<svg version="1.0" xmlns="http://www.w3.org/2000/svg"
 width="371.000000pt" height="371.000000pt" viewBox="0 0 371.000000 371.000000"
 preserveAspectRatio="xMidYMid meet">
<metadata>
Created by potrace 1.14, written by Peter Selinger 2001-2017
</metadata>
<g transform="translate(0.000000,371.000000) scale(0.100000,-0.100000)"
fill="#000000" stroke="none">
<path d="M857 3342 c-37 -64 -74 -128 -82 -142 -8 -14 -38 -65 -66 -115 -28
-49 -103 -180 -166 -289 -63 -109 -123 -213 -133 -230 -9 -17 -41 -71 -70
-121 -29 -49 -66 -112 -82 -140 -16 -27 -32 -58 -35 -67 -3 -10 -9 -18 -14
-18 -5 0 -9 -5 -9 -10 0 -6 -18 -40 -40 -76 -22 -36 -40 -67 -40 -69 0 -2 -27
-49 -60 -105 l-60 -102 81 -142 c45 -77 93 -161 107 -186 14 -25 51 -89 83
-143 33 -54 59 -99 59 -101 0 -2 37 -66 81 -142 45 -77 95 -164 112 -194 17
-30 48 -84 69 -119 21 -34 38 -64 38 -66 0 -2 34 -61 76 -131 42 -71 87 -149
100 -174 14 -25 46 -81 72 -125 l47 -80 928 0 928 0 31 55 c16 30 72 127 123
215 51 88 102 176 113 195 44 77 286 497 303 525 11 16 22 37 26 45 4 8 23 42
43 75 20 33 39 67 43 75 4 8 17 31 28 50 109 180 210 364 206 374 -3 7 -47 84
-97 172 -103 177 -121 207 -151 262 -12 20 -45 78 -74 127 -29 50 -63 108 -75
130 -50 88 -71 125 -149 259 -45 76 -81 140 -81 141 0 2 -18 33 -40 69 -22 36
-40 70 -40 76 0 5 -4 10 -10 10 -5 0 -10 4 -10 9 0 5 -23 49 -51 98 -28 48
-61 104 -71 123 -11 19 -31 54 -45 78 l-25 42 -926 0 -927 0 -68 -118z"/>
</g>
</svg>
